<svg width="161" height="151" viewBox="0 0 161 151" fill="none" xmlns="http://www.w3.org/2000/svg">
<ellipse cx="80.5" cy="75.5" rx="80.5" ry="75.5" fill="#945D5E"/>
<path d="M62.6154 73.577L109.19 34.3836L119.612 51.9531L126.452 64.3868L128.731 73.577L133.291 82.4969L137.199 92.7682L137.851 100.066L138.502 104.661L137.199 110.338L132.314 116.014L125.8 120.068L94.2077 123.853L62.6154 73.577Z" fill="#F1F7ED"/>
<path d="M15.1822 83.4304C14.6367 81.1657 16.4219 78.9973 18.7527 79.0935L85.444 81.8455C87.0569 81.912 88.4078 83.0732 88.7139 84.6563L95.8329 121.47C96.2673 123.717 94.4593 125.781 92.1728 125.65L26.9921 121.91C25.4602 121.823 24.1708 120.747 23.8119 119.257L15.1822 83.4304Z" fill="#F1F7ED" stroke="#0A0908"/>
<path d="M121.463 118.977L121.474 118.995L121.486 119.012C121.771 119.406 121.588 119.967 121.123 120.12L121.277 120.595L121.123 120.12L94.7547 128.838C94.3442 128.973 93.9127 129.032 93.4818 129.011L27.4624 125.788C26.5768 125.745 25.8816 125.021 25.8739 124.134C25.8654 123.157 26.6896 122.373 27.6652 122.431L94.6131 126.381C95.2041 126.416 95.7968 126.333 96.3574 126.139L119.278 118.191C120.104 117.904 121.014 118.232 121.463 118.977Z" fill="#F1F7ED" stroke="#0A0908"/>
<path d="M123.393 30.303C125.257 34.955 125.63 38.5592 121.53 40.6409C116.834 43.025 114.861 40.124 110.12 37.0226C105.38 33.9212 105.38 27.2016 110.12 24.8677C114.076 23.5833 120.177 25.9165 123.393 30.303Z" fill="#0A0908"/>
<path d="M71.8376 31.3367C71.4439 34.9401 64.3838 39.0901 63.1415 40.1239C60.0356 42.7084 53.8618 37.2856 54.2543 33.6673C54.6467 30.0491 57.1586 26.434 61.8991 24.1002C66.2472 23.0664 72.4587 25.6509 71.8376 31.3367Z" fill="#0A0908"/>
<path d="M116.682 42.7084V42.8133L116.724 42.9094C119.645 49.5621 120.196 54.9095 119.208 59.1932C118.221 63.4715 115.684 66.7524 112.304 69.2494C105.518 74.2619 95.3968 76.0651 87.9788 76.3235C80.6165 76.3214 70.6335 73.6331 63.8217 68.7289C60.4188 66.279 57.8479 63.3057 56.7559 59.8806C55.6697 56.4738 56.0241 52.5494 58.6039 48.1294L58.6721 48.0126V47.8774C58.6721 47.3482 58.8857 46.601 59.3408 45.6695C59.7904 44.7493 60.4537 43.6933 61.3 42.5601C62.9921 40.2942 65.3906 37.753 68.1976 35.4152C73.8391 30.7168 80.9979 26.948 87.3073 27.6981L87.3597 27.7043L87.4123 27.6994C95.668 26.9361 103.012 29.4882 108.294 32.8677C110.934 34.5575 113.047 36.4467 114.494 38.2161C115.959 40.0072 116.682 41.6015 116.682 42.7084Z" fill="#F1F7ED" stroke="#0A0908"/>
<path d="M91.0934 58.3186C91.0934 59.2322 88.5905 61.8335 85.503 61.8335C82.4155 61.8335 79.9126 59.2322 79.9126 58.3186C79.9126 57.4051 82.4155 56.6646 85.503 56.6646C88.5905 56.6646 91.0934 57.4051 91.0934 58.3186Z" fill="#0A0908"/>
<path d="M56.93 72.1714L58.1723 68.5531L59.4146 65.4518L65.0049 70.1038L71.2165 73.2052L71.2165 76.3065L69.9742 78.891L68.7318 80.4417L51.9607 79.9248L54.4453 76.8234L55.6877 73.7221L56.93 72.1714Z" fill="#0A0908"/>
<path d="M72.0139 78.368L72.0139 76.085L72.0139 74.2586L72.9444 74.7152L73.875 75.1718L76.2014 75.6284L78.5278 76.085L81.3194 76.5416L83.3791 76.8235L85.5069 76.9982L87.368 76.9982L89.6944 76.9982L91.5555 76.9982L93.4166 76.8235L95.2778 76.5416L97.1389 76.085L99 75.6284L100.861 75.1718L102.274 74.7559L101.032 76.8235L99.4653 78.8246L99 79.7378L98.5347 81.5642L98.0131 84.3038L97.6041 87.9566L97.1389 92.5226L96.6836 94.8056L95.743 96.632L94.3472 98.915L92.9567 100.601L91.5555 92.9792L91.0903 89.783L90.625 87.9566L90.1597 86.1302L89.6944 84.3038L89.2291 83.3906L88.2986 82.0208L87.4535 81.4756L84.8817 80.9587L70.1528 80.651L71.2163 79.7378L72.0139 78.368Z" fill="#0A0908"/>
<path d="M101.653 78.3741L102.895 76.3065L103.966 75.3071L104.759 74.239L107.864 73.2052L110.167 72.2661L111.795 71.3133L112.772 70.6781L113.749 70.0429L114.726 69.09L115.703 68.1372L117.332 66.2316L118.424 64.9349L119.045 63.3842L119.666 60.7997L120.287 57.6983L120.287 53.0463L122.151 56.1477L124.636 60.2828L125.257 61.8335L125.878 63.3842L126.499 64.9349L127.12 66.4855L127.741 68.5531L128.362 70.6207L128.984 72.6883L128.984 73.7221L128.362 74.239L128.362 75.7896L128.362 78.3741L127.741 79.9248L127.12 82.5093L125.878 85.0938L125.257 87.6782L124.636 89.7458L124.014 91.2965L123.393 93.3641L121.53 95.9485L119.666 98.533L117.803 101.118L108.486 108.871L100.411 116.107L95.4413 116.624L92.9567 102.668L98.5471 96.4654L99.7894 93.3641L99.7894 89.2289L100.411 82.5093L100.861 80.651L101.653 78.3741Z" fill="#0A0908"/>
<path d="M56.93 72.1714L58.1723 68.5531L59.4146 65.4518L65.0049 70.1038L71.2165 73.2052L71.2165 76.3065L69.9742 78.891L68.7318 80.4417L51.9607 79.9248L54.4453 76.8234L55.6877 73.7221L56.93 72.1714Z" fill="#0A0908"/>
<path d="M121.895 97.4992L123.138 96.9823L126.244 95.9485L128.107 95.4316H131.834L133.697 95.9485L134.319 96.4654L135.561 96.9823L136.803 97.4992L138.045 98.533L138.667 100.084L139.288 101.634L139.909 103.185V105.77L139.288 108.871L138.667 110.422L137.424 111.972L136.182 113.523L134.94 114.557L133.076 116.624L130.592 118.175L126.865 119.726L122.543 120.339V118.175L120.589 117.095H114.726H103.001L107.609 111.455L111.957 107.32L116.305 104.219L119.411 101.634L120.653 99.5668L121.895 97.4992Z" fill="#0A0908"/>
<path d="M128.984 74.2391L128.362 73.2053L128.984 72.6884L131.468 77.3404L133.332 81.4756L135.816 86.6445L137.059 90.7797L137.68 92.8472L138.301 95.9486L138.922 100.601L137.059 98.0162L137.059 94.3979L135.195 88.7121L133.953 85.6107L128.984 74.2391Z" fill="#0A0908"/>
<path d="M121.566 97.9918L122.543 96.0862L123.195 95.1334L124.172 94.1806L125.149 93.5454L126.451 93.2278L127.754 92.9102H129.383H131.011H131.988L132.965 93.2278L134.268 93.863L135.195 94.3979L135.816 94.9148H136.438L137.851 94.4982L138.176 95.451V96.4038L136.438 96.4654L135.571 96.0862L134.268 95.451L132.965 94.8158L131.285 94.6068L129.6 94.4982L127.429 94.6068L126.451 94.8158L125.8 95.1334L125.149 95.451L124.497 96.0862L124.015 96.9823L121.566 97.9918Z" fill="#0A0908"/>
<g clip-path="url(#clip0_31_122)">
<path d="M85.8849 43.7291C85.888 44.0774 85.9015 44.4467 85.9155 44.8298C85.9538 45.8701 85.9957 47.0119 85.8424 48.1107C85.6243 49.6737 85.0141 51.1012 83.5009 51.9875C81.9378 52.9029 80.9303 53.2306 79.7968 53.3458C79.2182 53.4046 78.5927 53.4094 77.8172 53.3982C77.5904 53.395 77.3505 53.3903 77.0962 53.3854C76.4892 53.3736 75.8003 53.3602 75.0101 53.3602C74.2229 53.3602 73.5326 53.3735 72.9217 53.3853C72.6625 53.3902 72.4176 53.3949 72.1856 53.3982C71.3998 53.4094 70.7597 53.4046 70.1664 53.3457C69.0039 53.2302 67.9688 52.9017 66.4078 51.9875C64.8958 51.1019 64.3125 49.6753 64.1222 48.112C63.9941 47.0599 64.0449 45.9702 64.0917 44.9668C64.1118 44.535 64.1312 44.1191 64.1353 43.7291H75.0101H85.8849Z" fill="#0A0908" stroke="#0A0908"/>
<path d="M108.079 43.7291C108.082 44.0774 108.096 44.4467 108.11 44.8298C108.148 45.8701 108.19 47.0119 108.037 48.1107C107.819 49.6737 107.208 51.1012 105.695 51.9875C104.132 52.9029 103.125 53.2306 101.991 53.3458C101.412 53.4046 100.787 53.4094 100.011 53.3982C99.7846 53.395 99.5447 53.3903 99.2904 53.3854C98.6835 53.3736 97.9945 53.3602 97.2044 53.3602C96.4171 53.3602 95.7268 53.3735 95.116 53.3853C94.8567 53.3902 94.6118 53.3949 94.3798 53.3982C93.5941 53.4094 92.954 53.4046 92.3607 53.3457C91.1981 53.2302 90.163 52.9017 88.602 51.9875C87.09 51.1019 86.5068 49.6753 86.3164 48.112C86.1883 47.0599 86.2391 45.9702 86.2859 44.9668C86.306 44.535 86.3254 44.1191 86.3295 43.7291H97.2044H108.079Z" fill="#F1F7ED" stroke="#0A0908"/>
<path d="M85.8849 43.7291C85.888 44.0774 85.9015 44.4467 85.9155 44.8298C85.9538 45.8701 85.9957 47.0119 85.8424 48.1107C85.6243 49.6737 85.0141 51.1012 83.5009 51.9875C81.9378 52.9029 80.9303 53.2306 79.7968 53.3458C79.2182 53.4046 78.5927 53.4094 77.8172 53.3982C77.5904 53.395 77.3505 53.3903 77.0962 53.3854C76.4892 53.3736 75.8003 53.3602 75.0101 53.3602C74.2229 53.3602 73.5326 53.3735 72.9217 53.3853C72.6625 53.3902 72.4176 53.3949 72.1856 53.3982C71.3998 53.4094 70.7597 53.4046 70.1664 53.3457C69.0039 53.2302 67.9688 52.9017 66.4078 51.9875C64.8958 51.1019 64.3125 49.6753 64.1222 48.112C63.9941 47.0599 64.0449 45.9702 64.0917 44.9668C64.1118 44.535 64.1312 44.1191 64.1353 43.7291H75.0101H85.8849Z" fill="#0A0908" stroke="#0A0908"/>
<path d="M108.079 43.7291C108.082 44.0774 108.096 44.4467 108.11 44.8298C108.148 45.8701 108.19 47.0119 108.037 48.1107C107.819 49.6737 107.208 51.1012 105.695 51.9875C104.132 52.9029 103.125 53.2306 101.991 53.3458C101.412 53.4046 100.787 53.4094 100.011 53.3982C99.7846 53.395 99.5447 53.3903 99.2904 53.3854C98.6835 53.3736 97.9945 53.3602 97.2044 53.3602C96.4171 53.3602 95.7268 53.3735 95.1159 53.3853C94.8567 53.3902 94.6118 53.3949 94.3798 53.3982C93.5941 53.4094 92.954 53.4046 92.3607 53.3457C91.1981 53.2302 90.163 52.9017 88.602 51.9875C87.09 51.1019 86.5068 49.6753 86.3164 48.112C86.1883 47.0599 86.2391 45.9702 86.2859 44.9668C86.306 44.535 86.3254 44.1191 86.3295 43.7291H97.2044H108.079Z" fill="#0A0908" stroke="#0A0908"/>
</g>
<path d="M116.681 43.3643L106.584 43.3643C106.507 43.3643 106.001 43.341 106.001 43.4837V44.0006C106.001 44.1434 106.507 43.9995 106.584 43.9995H117.006C117.084 43.9995 117.182 44.1434 117.182 44.0006V43.4837C117.182 43.341 116.758 43.3643 116.681 43.3643Z" fill="#0A0908"/>
<path d="M46.5437 103.685L46.4359 100.661L47.1564 97.8532L48.435 95.7224L50.8748 94.2172L55.867 94.3696L58.0035 96.0145L60.0499 98.2467L61.5137 101.93L61.7937 103.556L62.0737 105.182" stroke="#0A0908" stroke-width="3"/>
<path d="M60.3355 43.3643H65.7603V43.762L64.2438 43.6819L63.9181 44.2591H60.0358L60.3355 43.3643Z" fill="#0A0908"/>
<path d="M95.6114 117.867L99.1686 118.094L99.1845 118.095H99.2005H102.132H106.04H111.577H118.696L117.116 118.699L112.778 120.246L103.469 123.345L103.466 123.346L97.153 125.408L95.9456 125.727L96.3444 125.192L96.3788 125.146L96.4018 125.093L96.62 124.593L96.6618 124.498V124.393V123.853V123.582V123.519L96.6461 123.458L96.4278 122.607L96.4252 122.597L96.4222 122.587L96.1099 121.55L95.7892 118.622L95.7857 118.59L95.7782 118.559L95.6114 117.867Z" fill="#F1F7ED" stroke="#0A0908"/>
<path d="M42.3411 106.125C41.8109 103.864 43.5957 101.711 45.9187 101.808L62.711 102.512C64.3295 102.58 65.6826 103.75 65.9818 105.34L67.3597 112.661C67.7818 114.904 65.9732 116.957 63.6926 116.823L47.1785 115.858C45.6403 115.769 44.3486 114.683 43.9971 113.185L42.3411 106.125Z" fill="#847306" stroke="#0A0908"/>
<path d="M77.1 67.4292L81.5055 69.09L87.5421 69.7666L92.5145 69.2991L97.487 67.4292" stroke="#0A0908"/>
<defs>
<clipPath id="clip0_31_122">
<rect width="44.723" height="11.3717" fill="white" transform="translate(63.7625 42.1916)"/>
</clipPath>
</defs>
</svg>
